<?xml version="1.0" encoding="UTF-8" standalone="no"?>
<!-- Created with Inkscape (http://www.inkscape.org/) -->

<svg
   xmlns:osb="http://www.openswatchbook.org/uri/2009/osb"
   xmlns:dc="http://purl.org/dc/elements/1.1/"
   xmlns:cc="http://creativecommons.org/ns#"
   xmlns:rdf="http://www.w3.org/1999/02/22-rdf-syntax-ns#"
   xmlns:svg="http://www.w3.org/2000/svg"
   xmlns="http://www.w3.org/2000/svg"
   xmlns:sodipodi="http://sodipodi.sourceforge.net/DTD/sodipodi-0.dtd"
   xmlns:inkscape="http://www.inkscape.org/namespaces/inkscape"
   width="960"
   height="1040"
   id="svg2"
   version="1.1"
   inkscape:version="0.48.1 r9760"
   sodipodi:docname="New document 1">
  <defs
     id="defs4">
    <linearGradient
       inkscape:collect="always"
       id="linearGradient3812"
       osb:paint="gradient">
      <stop
         style="stop-color:#000000;stop-opacity:1;"
         offset="0"
         id="stop3814" />
      <stop
         style="stop-color:#000000;stop-opacity:0;"
         offset="1"
         id="stop3816" />
    </linearGradient>
  </defs>
  <sodipodi:namedview
     id="base"
     pagecolor="#ffffff"
     bordercolor="#666666"
     borderopacity="1.0"
     inkscape:pageopacity="0.0"
     inkscape:pageshadow="2"
     inkscape:zoom="0.68846154"
     inkscape:cx="518.82833"
     inkscape:cy="744.98773"
     inkscape:document-units="px"
     inkscape:current-layer="layer1"
     showgrid="true"
     inkscape:snap-global="false"
     showguides="true"
     inkscape:guide-bbox="true"
     inkscape:window-width="1600"
     inkscape:window-height="876"
     inkscape:window-x="1200"
     inkscape:window-y="24"
     inkscape:window-maximized="1">
    <inkscape:grid
       type="xygrid"
       id="grid2985"
       empspacing="80"
       visible="true"
       enabled="true"
       snapvisiblegridlinesonly="true" />
  </sodipodi:namedview>
  <metadata
     id="metadata7">
    <rdf:RDF>
      <cc:Work
         rdf:about="">
        <dc:format>image/svg+xml</dc:format>
        <dc:type
           rdf:resource="http://purl.org/dc/dcmitype/StillImage" />
        <dc:title></dc:title>
      </cc:Work>
    </rdf:RDF>
  </metadata>
  <g
     inkscape:label="Layer 1"
     inkscape:groupmode="layer"
     id="layer1"
     transform="translate(0,-12.362183)">
    <rect
       style="fill:#00affc;fill-opacity:1;stroke-width:13.18099976;stroke-miterlimit:4;stroke-dasharray:none"
       id="rect2987"
       width="960"
       height="1040"
       x="0"
       y="0"
       transform="translate(0,12.362183)" />
    <rect
       style="fill:#c4f4fc;fill-opacity:1;stroke:#c4f4fc;stroke-width:13.18099976000000062;stroke-miterlimit:4;stroke-opacity:1;stroke-dasharray:none"
       id="rect2989"
       width="800"
       height="320"
       x="80"
       y="160"
       transform="translate(0,12.362183)"
       ry="0" />
    <flowRoot
       xml:space="preserve"
       id="flowRoot3759"
       style="font-size:40px;font-style:normal;font-weight:normal;line-height:125%;letter-spacing:0px;word-spacing:0px;fill:#000000;fill-opacity:1;stroke:none;font-family:Sans"
       transform="translate(-25.34375,-54.211013)"><flowRegion
         id="flowRegion3761"><rect
           id="rect3763"
           width="321.00558"
           height="75.530724"
           x="479.32962"
           y="82.793297" /></flowRegion><flowPara
         id="flowPara3765"
         style="font-size:64px;fill:#f9f9f9">yawnlog</flowPara></flowRoot>    <rect
       style="fill:#f9f9f9;fill-opacity:1;stroke:none;stroke-width:13.18099976000000062;stroke-miterlimit:4;stroke-opacity:1;stroke-dasharray:none"
       id="rect3767"
       width="400"
       height="240"
       x="80"
       y="160"
       transform="translate(0,12.362183)" />
    <path
       style="fill:none;stroke:#006ddc;stroke-width:1px;stroke-linecap:butt;stroke-linejoin:miter;stroke-opacity:1"
       d="m 90.055866,316.64804 74.078214,-66.81564 56.64804,62.4581 52.29051,-113.29609 62.4581,111.84358 45.02793,45.02793 72.6257,-116.20112 0,0"
       id="path3769"
       inkscape:connector-curvature="0"
       transform="translate(0,12.362183)" />
    <flowRoot
       xml:space="preserve"
       id="flowRoot3771"
       style="font-size:40px;font-style:normal;font-weight:normal;line-height:125%;letter-spacing:0px;word-spacing:0px;fill:#000000;fill-opacity:1;stroke:none;font-family:Sans"
       transform="translate(0,12.362183)"><flowRegion
         id="flowRegion3773"><rect
           id="rect3775"
           width="332.6257"
           height="283.24023"
           x="527.26257"
           y="183.01675" /></flowRegion><flowPara
         id="flowPara3777">Yawnlog is a tool that lets you blah blah blah blah blah blah blah kill me</flowPara></flowRoot>    <rect
       ry="0"
       y="652.36218"
       x="80"
       height="398.65921"
       width="800"
       id="rect3779"
       style="fill:#edf4fc;fill-opacity:1;stroke:none" />
    <path
       sodipodi:type="arc"
       style="fill:#ed9bfc;fill-opacity:1;stroke:none"
       id="path3781"
       sodipodi:cx="201.17319"
       sodipodi:cy="448.10056"
       sodipodi:rx="19.608938"
       sodipodi:ry="19.608938"
       d="m 220.78213,448.10056 a 19.608938,19.608938 0 1 1 -39.21788,0 19.608938,19.608938 0 1 1 39.21788,0 z"
       transform="translate(-2,8.362183)" />
    <path
       transform="translate(-2,8.362183)"
       d="m 220.78213,448.10056 a 19.608938,19.608938 0 1 1 -39.21788,0 19.608938,19.608938 0 1 1 39.21788,0 z"
       sodipodi:ry="19.608938"
       sodipodi:rx="19.608938"
       sodipodi:cy="448.10056"
       sodipodi:cx="201.17319"
       id="path3783"
       style="fill:#00affc;fill-opacity:1;stroke:none"
       sodipodi:type="arc" />
    <path
       sodipodi:type="arc"
       style="fill:#ed9bfc;fill-opacity:1;stroke:none"
       id="path3785"
       sodipodi:cx="201.17319"
       sodipodi:cy="448.10056"
       sodipodi:rx="19.608938"
       sodipodi:ry="19.608938"
       d="m 220.78213,448.10056 a 19.608938,19.608938 0 1 1 -39.21788,0 19.608938,19.608938 0 1 1 39.21788,0 z"
       transform="translate(78,8.362183)" />
    <path
       transform="translate(158,8.362183)"
       d="m 220.78213,448.10056 a 19.608938,19.608938 0 1 1 -39.21788,0 19.608938,19.608938 0 1 1 39.21788,0 z"
       sodipodi:ry="19.608938"
       sodipodi:rx="19.608938"
       sodipodi:cy="448.10056"
       sodipodi:cx="201.17319"
       id="path3787"
       style="fill:#ed9bfc;fill-opacity:1;stroke:none"
       sodipodi:type="arc" />
    <rect
       style="fill:#00affc;fill-opacity:1;stroke:none"
       id="rect3789"
       width="7.2625699"
       height="248.37988"
       x="319.44135"
       y="684.46277" />
    <rect
       y="684.46277"
       x="639.44135"
       height="248.37988"
       width="7.2625699"
       id="rect3791"
       style="fill:#00affc;fill-opacity:1;stroke:none" />
    <rect
       y="-834.35748"
       x="981.46838"
       height="707.37433"
       width="7.2625699"
       id="rect3793"
       style="fill:#00affc;fill-opacity:1;stroke:none"
       transform="matrix(0,1,-1,0,0,0)" />
    <g
       id="g3805"
       style="fill:#fffdfc;fill-opacity:1"
       transform="translate(1099.5531,-201.89944)">
      <path
         transform="translate(0,12.362183)"
         inkscape:connector-curvature="0"
         id="path3795"
         d="m -348.60335,239.6648 c -3.44366,3.43889 -5.16541,7.42579 -7.26257,11.62012 -0.48417,0.96834 -0.80293,2.03891 -1.45252,2.90502 -2.17041,2.89388 -3.47857,2.29419 -4.35754,5.81006 -0.23486,0.93943 0.23486,1.9656 0,2.90503 -0.52516,2.10063 -2.54906,3.67423 -2.90503,5.81005 -0.31838,1.91034 0.31839,3.89973 0,5.81006 -0.17798,1.06791 -1.18993,1.85471 -1.45251,2.90503 -0.23486,0.93943 0,1.93668 0,2.90503 0,2.90502 0,5.81005 0,8.71508 0,1.30924 -0.30474,6.34836 0,7.26257 3.50705,10.52116 -0.41876,-2.29005 2.90503,4.35754 0.21653,0.43306 -0.15311,0.99319 0,1.45252 0.34236,1.02708 0.85197,2.00421 1.45251,2.90502 0.41045,0.61567 3.75657,4.05706 4.35754,4.35754 0.43306,0.21653 0.99319,-0.1531 1.45252,0 1.02708,0.34237 1.87794,1.11016 2.90503,1.45252 0.45932,0.15311 1.11015,-0.34236 1.45251,0 0.34236,0.34236 -0.43306,1.23598 0,1.45251 0.61734,0.30867 6.04536,0 7.26257,0 0.65415,0 3.91549,0.22103 4.35754,0 0.61244,-0.30621 0.84008,-1.14629 1.45252,-1.45251 0.43305,-0.21653 1.11015,0.34236 1.45251,0 0.34236,-0.34236 -0.34236,-1.11015 0,-1.45252 3.0053,-3.0053 -0.11748,4.59251 2.90503,-1.45251 0.21653,-0.43306 -0.34236,-1.11015 0,-1.45251 0.76554,-0.76555 2.13948,-0.68697 2.90503,-1.45252 0.34236,-0.34236 -0.21653,-1.01946 0,-1.45251 0.61243,-1.22487 2.29259,-1.68016 2.90502,-2.90503 0.21653,-0.43305 -0.34236,-1.11015 0,-1.45251 0.34236,-0.34236 1.11016,0.34236 1.45252,0 0.68472,-0.68472 -0.43306,-2.03892 0,-2.90503 0.30621,-0.61243 1.14629,-0.84008 1.45251,-1.45251 0.43306,-0.86612 -0.43305,-2.03892 0,-2.90503 0.30622,-0.61244 1.1463,-0.84008 1.45252,-1.45252 0.46409,-0.92818 -0.38971,-4.64093 0,-5.81005 0.34236,-1.02709 1.11015,-1.87795 1.45251,-2.90503 0.2887,-0.86609 0,-7.30779 0,-8.71508 0,-0.48418 0,-0.96835 0,-1.45252 0,-0.48417 -0.21653,-1.01946 0,-1.45251 0.30622,-0.61244 1.1463,-0.84008 1.45251,-1.45252 0.22103,-0.44205 0,-3.70339 0,-4.35754 0,-0.48417 0.34236,-1.11015 0,-1.45251 -0.34236,-0.34236 -1.11015,0.34236 -1.45251,0 -0.34236,-0.34236 0,-0.96834 0,-1.45252 0,-0.75955 -0.19096,-5.42813 0,-5.81005 0.30622,-0.61244 1.1463,-0.84008 1.45251,-1.45252 0.43306,-0.86611 -0.68472,-2.2203 0,-2.90502 0.34236,-0.34236 1.11016,0.34236 1.45252,0 0.0467,-0.0467 0,-4.00527 0,-4.35755 0,-0.48417 0,-0.96834 0,-1.45251 0,-0.48417 0.34236,-1.11015 0,-1.45251 -0.34236,-0.34236 -1.11016,0.34236 -1.45252,0 -0.34236,-0.34236 0.34236,-1.11016 0,-1.45252 -0.34236,-0.34236 -1.11015,0.34236 -1.45251,0 -0.34236,-0.34236 0.34236,-1.11015 0,-1.45251 -0.48493,-0.48493 -2.4201,0.48493 -2.90503,0 -0.34236,-0.34236 0.34236,-1.11015 0,-1.45252 -0.72626,-0.72625 -3.63128,0.72626 -4.35754,0 -0.34236,-0.34236 0.34236,-1.11015 0,-1.45251 -0.29695,-0.29695 -3.78163,0.28796 -4.35754,0 -0.61244,-0.30622 -0.84008,-1.1463 -1.45252,-1.45251 -0.43305,-0.21653 -0.96834,0 -1.45251,0 -0.48417,0 -1.11015,-0.34236 -1.45251,0 -0.34237,0.34236 0.34236,1.11015 0,1.45251 -0.68473,0.68472 -2.22031,-0.68472 -2.90503,0 -1.93669,1.93669 2.42085,1.45251 -1.45252,1.45251 -1.93668,-2.42086 -3.87337,-4.84171 -5.81005,-7.26257 -0.48417,0 -1.11016,0.34237 -1.45252,0 -0.72625,-0.72625 0.72626,-3.63128 0,-4.35754 -0.34236,-0.34236 -1.23598,0.43306 -1.45251,0 -0.43306,-0.86611 0,-1.93668 0,-2.90503 0,-0.48417 0.34236,-1.11015 0,-1.45251 -0.34236,-0.34236 -1.11015,0.34236 -1.45251,0 -0.68473,-0.68472 0.43305,-2.03892 0,-2.90503 -0.30622,-0.61243 -1.1463,-0.84008 -1.45252,-1.45251 -0.21653,-0.43306 0.21653,-1.01946 0,-1.45252 -0.30621,-0.61243 -1.14629,-0.84008 -1.45251,-1.45251 -0.43306,-0.86611 0.43305,-2.03891 0,-2.90503 -0.61244,-1.22486 -2.2926,-1.68016 -2.90503,-2.90502 -0.21653,-0.43306 0.34236,-1.11016 0,-1.45252 -0.34236,-0.34236 -1.11015,0.34236 -1.45251,0 -0.34236,-0.34236 0.34236,-1.11015 0,-1.45251 -0.34236,-0.34236 -0.96835,0 -1.45252,0 -0.48417,0 -0.96834,0 -1.45251,0 -0.48417,0 -1.11015,-0.34236 -1.45252,0 -0.0584,0.0585 0,5.27664 0,5.81005 0,1.36804 -0.27542,6.43629 0,7.26257 0.21653,0.64959 1.23599,0.80293 1.45252,1.45252 0.22145,0.66436 -0.32317,5.16372 0,5.81005 3.32379,6.64759 -0.60203,-6.16362 2.90503,4.35754 0.30621,0.91866 -0.43306,2.03892 0,2.90503 1.79487,3.58975 1.45251,-0.50137 1.45251,2.90503 0,3.87337 -0.48417,-0.48417 1.45251,1.45251 0.68473,0.68473 -0.95516,3.06423 0,2.90503 3.02051,-0.50342 5.81006,-1.93669 8.71509,-2.90503 z"
         style="fill:#fffdfc;fill-opacity:1;stroke:#000000;stroke-width:1px;stroke-linecap:butt;stroke-linejoin:miter;stroke-opacity:1" />
      <path
         transform="translate(0,12.362183)"
         inkscape:connector-curvature="0"
         id="path3797"
         d="m -323.91061,246.92737 c 1.45251,-1.93668 2.90502,-3.87337 4.35754,-5.81005 0,-0.48417 -0.21653,-1.01946 0,-1.45252 0.30621,-0.61243 1.14629,-0.84008 1.45251,-1.45251 0.21653,-0.43306 -0.21653,-1.01946 0,-1.45251 0.30622,-0.61244 1.1463,-0.84008 1.45252,-1.45252 0.21652,-0.43305 -0.21653,-1.01946 0,-1.45251 0.30621,-0.61244 1.23598,-0.80293 1.45251,-1.45252 0.30622,-0.91865 -0.43306,-2.03891 0,-2.90502 0.61243,-1.22487 2.1454,-1.76559 2.90503,-2.90503 0.53714,-0.80571 -0.43306,-2.03892 0,-2.90503 0.30621,-0.61243 1.14629,-0.84008 1.45251,-1.45251 0.21653,-0.43306 -0.21653,-1.01946 0,-1.45252 0.30622,-0.61243 1.23599,-0.80293 1.45252,-1.45251 0.30621,-0.91865 -0.30622,-1.98638 0,-2.90503 0.21652,-0.64958 0.96834,-0.96834 1.45251,-1.45251 2.10875,-2.10876 1.5724,-1.45252 4.35754,-1.45252 0.48417,0 1.11015,-0.34236 1.45251,0 0.34237,0.34236 0,0.96835 0,1.45252 0,0.48417 0,0.96834 0,1.45251 0,1.68133 0.3242,5.96579 0,7.26257 -0.26257,1.05032 -1.11015,1.87795 -1.45251,2.90503 -0.30622,0.91865 0.53714,2.09932 0,2.90503 -0.75963,1.13944 -2.29259,1.68016 -2.90503,2.90502 -0.581,1.16202 0.58101,3.19554 0,4.35755 -0.30621,0.61243 -1.14629,0.84008 -1.45251,1.45251 -0.21653,0.43306 0.21653,1.01946 0,1.45251 -0.30622,0.61244 -1.1463,0.84008 -1.45251,1.45252 -0.21653,0.43305 0.34236,1.11015 0,1.45251 -0.34237,0.34236 -1.11016,-0.34236 -1.45252,0 -0.72626,0.72626 0.72626,3.63129 0,4.35754 -0.34236,0.34237 -1.11015,-0.34236 -1.45251,0 -0.34236,0.34237 0.34236,1.11016 0,1.45252 -0.34236,0.34236 -1.11016,-0.34236 -1.45252,0 -0.34236,0.34236 0.34236,1.11015 0,1.45251 -0.0467,0.0467 -4.00527,0 -4.35754,0"
         style="fill:#fffdfc;fill-opacity:1;stroke:#000000;stroke-width:1px;stroke-linecap:butt;stroke-linejoin:miter;stroke-opacity:1" />
      <path
         transform="translate(0,12.362183)"
         inkscape:connector-curvature="0"
         id="path3799"
         d="m -316.64804,258.54749 c 8.02811,-8.02812 4.2004,-5.73149 10.16759,-8.71509 0.96835,-0.48417 2.13949,-0.68697 2.90503,-1.45251 0.76554,-0.76554 0.68697,-2.13949 1.45251,-2.90503 0.0931,-0.0931 5.5395,-2.72465 5.81006,-2.90503 1.13945,-0.75963 1.68016,-2.29259 2.90503,-2.90503 0.38192,-0.19096 5.05051,0 5.81005,0 0.48418,0 1.11016,-0.34236 1.45252,0 0.34236,0.34237 0,0.96835 0,1.45252 0,1.30924 0.30474,6.34836 0,7.26257 -1.03421,3.10263 -1.87082,2.70742 -2.90503,5.81005 -0.15311,0.45933 0.34236,1.11016 0,1.45252 -7.11727,3.55863 -1.21492,-0.47518 -2.90503,2.90503 -0.30621,0.61243 -1.45251,0.76779 -1.45251,1.45251 0,0.48417 0.96834,0 1.45251,0 0.48417,0 1.04966,0.26857 1.45252,0 1.13944,-0.75963 1.93668,-1.93669 2.90502,-2.90503 1.45252,-0.48417 3.04465,-0.66478 4.35755,-1.45251 1.17428,-0.70457 1.73074,-2.20046 2.90502,-2.90503 1.3129,-0.78774 3.04465,-0.66478 4.35755,-1.45251 7.26257,-4.35755 0,-1.45252 4.35754,-4.35755 0.90081,-0.60054 2.00422,-0.85197 2.90503,-1.45251 0.56972,-0.37981 0.84008,-1.1463 1.45251,-1.45251 0.43306,-0.21653 1.01946,0.21652 1.45251,0 0.61244,-0.30622 0.84008,-1.1463 1.45252,-1.45252 0.43305,-0.21653 0.96834,0 1.45251,0 0.48417,0 1.11016,-0.34236 1.45252,0 0.34236,0.34236 -0.21653,1.01946 0,1.45252 0.30621,0.61243 1.14629,0.84008 1.45251,1.45251 0.42851,0.85701 -0.33303,3.35846 0,4.35754 0.34236,1.02708 1.11015,1.87795 1.45251,2.90503 0.10632,0.31894 0.10797,5.59412 0,5.81006 -0.30621,0.61243 -1.14629,0.84008 -1.45251,1.45251 -0.19412,0.38824 0.92089,6.73094 -1.45251,4.35754 -0.34236,-0.34236 -0.34236,-1.11015 0,-1.45251 0.0387,-0.0388 8.56211,-5.69533 8.71508,-5.81006 2.48017,-1.86012 4.75532,-3.9866 7.26257,-5.81005 2.82363,-2.05355 5.81006,-3.87337 8.71508,-5.81006 2.90503,-1.93668 5.53663,-4.3653 8.71509,-5.81006 2.24751,-1.02159 4.88076,-0.80293 7.26257,-1.45251 2.95427,-0.80571 5.83728,-1.85855 8.71508,-2.90503 2.45036,-0.89104 4.71732,-2.33941 7.26257,-2.90503 2.36321,-0.52515 4.84171,0 7.26257,0 0.48417,0 0.96834,0 1.45251,0 0.48418,0 1.11016,-0.34236 1.45252,0 0.34236,0.34237 0,0.96835 0,1.45252 0,0.65415 -0.22103,3.91549 0,4.35754 0.30622,0.61243 1.23598,0.80293 1.45251,1.45251 0.61244,1.83731 -0.61243,3.97276 0,5.81006 0.21653,0.64958 1.23599,0.80293 1.45252,1.45251 0.26775,0.80327 0,7.25233 0,8.71509 0,0.48417 0.34236,1.11015 0,1.45251 -0.34236,0.34236 -1.11016,-0.34236 -1.45252,0 -0.34236,0.34236 0.34236,1.11016 0,1.45252 -0.34236,0.34236 -1.11015,-0.34236 -1.45251,0 -0.34236,0.34236 0.21653,1.01945 0,1.45251 -0.30622,0.61243 -1.45252,0.76779 -1.45252,1.45251 0,0.48418 1.01946,0.21653 1.45252,0 0.61243,-0.30621 0.84008,-1.14629 1.45251,-1.45251 0.43306,-0.21653 1.01946,0.21653 1.45252,0 1.22486,-0.61243 1.60586,-2.47197 2.90502,-2.90503 0.78088,-0.26029 4.58029,0 5.81006,0 0.48417,0 0.96834,0 1.45251,0 0.48418,0 1.11016,-0.34236 1.45252,0 0.34236,0.34236 -0.34236,1.11016 0,1.45252 0.34236,0.34236 1.23598,-0.43306 1.45251,0 0.43306,0.86611 0,1.93668 0,2.90502 0.48417,0.96835 0.85198,2.00422 1.45252,2.90503 0.37981,0.56972 1.07269,0.88279 1.45251,1.45252 1.46389,2.19583 1.44114,3.61422 2.90503,5.81005 0.37981,0.56972 1.1463,0.84008 1.45251,1.45252 0.21653,0.43305 0,0.96834 0,1.45251 0,0.96834 -0.30621,1.98638 0,2.90503 0.21653,0.64958 1.1463,0.84008 1.45252,1.45251 0.14897,0.29795 0.20484,4.1527 0,4.35754 -0.76555,0.76555 -2.03892,0.80293 -2.90503,1.45252 -1.09556,0.82166 -1.76558,2.14539 -2.90503,2.90503 -0.80571,0.53714 -2.03892,-0.43306 -2.90503,0 -0.61243,0.30621 -0.80293,1.23598 -1.45251,1.45251 -1.47212,0.49071 -6.86365,-0.37029 -8.71509,0 -1.50135,0.30027 -2.85619,1.15224 -4.35754,1.45251 -0.94954,0.18991 -1.93668,0 -2.90503,0 -1.93668,0 -3.87337,0 -5.81005,0 -0.48417,0 -1.11015,-0.34236 -1.45252,0 -0.34236,0.34236 0,0.96835 0,1.45252 0,0.48417 -0.21652,1.01946 0,1.45251 0.30049,0.60098 3.74188,3.9471 4.35755,4.35754 0.90081,0.60054 2.00421,0.85198 2.90502,1.45252 2.55839,1.70559 3.82771,5.31936 7.26257,5.81005 2.39653,0.34236 4.88873,-0.47477 7.26257,0 6.06647,1.2133 6.97918,3.0255 11.62012,5.81006 0.92835,0.55701 1.87794,1.11015 2.90502,1.45251 0.91865,0.30622 2.22031,-0.68472 2.90503,0 0.34236,0.34236 -0.34236,1.11016 0,1.45252 0.34236,0.34236 1.11015,-0.34236 1.45252,0 0.34236,0.34236 0,0.96834 0,1.45251 0,2.63278 0.71346,4.35754 -2.90503,4.35754 -3.40641,0 0.68472,-0.34236 -2.90503,1.45252 -0.86611,0.43305 -1.98638,-0.30622 -2.90503,0 -1.02708,0.34236 -1.87794,1.11015 -2.90503,1.45251 -1.10526,0.36842 -4.70068,-0.22187 -5.81005,0 -1.50135,0.30027 -2.87217,1.08117 -4.35754,1.45251 -0.93943,0.23486 -2.03892,-0.43305 -2.90503,0 -0.61244,0.30622 -0.84008,1.1463 -1.45252,1.45252 -0.57591,0.28795 -4.06059,-0.29695 -4.35754,0 -0.34236,0.34236 0.34236,1.11015 0,1.45251 -0.34236,0.34236 -1.11015,-0.34236 -1.45251,0 -0.68472,0.68472 0.68472,2.22031 0,2.90503 -0.34236,0.34236 -1.23599,-0.43306 -1.45252,0 -0.004,0.007 -0.12728,9.91304 0,10.1676 0.30622,0.61243 1.1463,0.84008 1.45252,1.45251 0.21653,0.43306 -0.34236,1.11016 0,1.45252 0.34236,0.34236 1.11015,-0.34236 1.45251,0 0.34236,0.34236 -0.21653,1.01945 0,1.45251 0.30622,0.61243 1.23599,0.80293 1.45252,1.45251 0.30621,0.91865 -0.68473,2.22031 0,2.90503 0.68472,0.68472 2.03891,-0.43305 2.90502,0 0.43306,0.21653 0,0.96834 0,1.45252 0,0.48417 0.34237,1.11015 0,1.45251 -0.68472,0.68472 -2.2203,-0.68472 -2.90502,0 -0.34236,0.34236 0.43305,1.23599 0,1.45251 -1.16201,0.58101 -3.19553,-0.581 -4.35755,0 -0.61243,0.30622 -0.80293,1.23599 -1.45251,1.45252 -0.91865,0.30621 -1.93668,0 -2.90503,0 -1.45251,0 -2.90503,0 -4.35754,0 -0.96834,0 -1.93668,0 -2.90503,0 -0.96834,0 -1.96559,0.23486 -2.90503,0 -1.05031,-0.26258 -1.87794,-1.11016 -2.90502,-1.45252 -0.45933,-0.1531 -1.01946,0.21653 -1.45252,0 -0.61243,-0.30621 -0.84008,-1.14629 -1.45251,-1.45251 -0.43306,-0.21653 -1.11015,-0.34236 -1.45251,0 -0.34237,0.34236 0,0.96834 0,1.45251 0,0.48418 -0.34237,1.11016 0,1.45252 0.34236,0.34236 1.11015,-0.34236 1.45251,0 0.34236,0.34236 0.34236,1.11015 0,1.45251 -0.34236,0.34236 -0.96834,0 -1.45251,0 0,0.48417 0.34236,1.11015 0,1.45252 -0.34237,0.34236 -0.96835,0 -1.45252,0 -0.48417,0 -0.96834,0 -1.45251,0 -2.42086,0 -4.84172,0 -7.26257,0 -2.42086,0 -4.88076,0.43305 -7.26257,0 -9.15691,-1.6649 -7.60188,-3.52576 -15.97766,-5.81006 -6.49876,-1.77239 -9.28066,-0.16196 -14.52514,-4.35754 -0.8454,-0.67632 -0.68697,-2.13949 -1.45251,-2.90503 -0.34236,-0.34236 -1.01946,0.21653 -1.45251,0 -0.61244,-0.30622 -0.84008,-1.1463 -1.45252,-1.45251 -0.44205,-0.22103 -3.70339,0 -4.35754,0 -1.45251,0 -2.90503,0 -4.35754,0 -1.93669,0 -3.89972,0.31839 -5.81006,0 -1.06791,-0.17799 -1.89982,-1.05044 -2.90503,-1.45252 -1.42157,-0.56863 -2.93596,-0.88388 -4.35754,-1.45251 -1.0052,-0.40208 -1.85471,-1.18994 -2.90503,-1.45252 -0.93943,-0.23485 -1.98637,0.30622 -2.90502,0 -1.29917,-0.43305 -1.68016,-2.29259 -2.90503,-2.90502 -0.43306,-0.21653 -0.96834,0 -1.45252,0 -0.48417,0 -0.96834,0 -1.45251,0 -1.5365,0 -9.4193,0.24943 -10.1676,0 -0.64958,-0.21653 -0.80293,-1.23599 -1.45251,-1.45252 -0.007,-0.002 -4.35616,10e-4 -4.35754,0 -0.34236,-0.34236 0.34236,-1.11015 0,-1.45251 -0.34236,-0.34236 -1.01946,0.21653 -1.45252,0 -0.61243,-0.30622 -0.84008,-1.1463 -1.45251,-1.45252 -0.43306,-0.21652 -1.01946,0.21653 -1.45251,0 -0.61244,-0.30621 -0.84008,-1.14629 -1.45252,-1.45251 -0.43305,-0.21653 -1.01946,0.21653 -1.45251,0 -0.61244,-0.30622 -0.84008,-1.1463 -1.45252,-1.45251 -0.43305,-0.21653 -1.11015,0.34236 -1.45251,0 -0.34236,-0.34236 0.21653,-1.01946 0,-1.45252 -3.02251,-6.04501 0.10027,1.55279 -2.90503,-1.45251 -0.34236,-0.34236 0.34236,-1.11015 0,-1.45252 -0.68472,-0.68472 -2.2203,0.68473 -2.90503,0 -0.34236,-0.34236 0.34236,-1.11015 0,-1.45251 -0.34236,-0.34236 -1.11015,0.34236 -1.45251,0 -0.34236,-0.34236 0.34236,-1.11015 0,-1.45251 -3.0053,-3.00531 0.11748,4.5925 -2.90503,-1.45252 -0.14897,-0.29795 -0.20484,-4.1527 0,-4.35754 0.29695,-0.29695 3.78163,0.28796 4.35754,0 0.61244,-0.30622 0.80293,-1.23599 1.45252,-1.45251 6.61225,0 0.0831,0.68472 4.35754,-1.45252 0.86611,-0.43305 2.22031,0.68472 2.90503,0 0.34236,-0.34236 -0.34236,-1.11015 0,-1.45251 0.34236,-0.34236 1.11015,0.34236 1.45251,0 1.13547,-1.13547 -1.26343,-2.52687 -1.45251,-2.90503 -0.21653,-0.43306 0,-0.96834 0,-1.45251"
         style="fill:#fffdfc;fill-opacity:1;stroke:#000000;stroke-width:1px;stroke-linecap:butt;stroke-linejoin:miter;stroke-opacity:1" />
      <path
         transform="translate(0,12.362183)"
         inkscape:connector-curvature="0"
         id="path3801"
         d="m -307.93296,341.34078 c -3.3892,0 -6.7784,0 -10.1676,0 -0.48417,0 -1.01946,-0.21653 -1.45251,0 -0.61244,0.30622 -0.84008,1.1463 -1.45252,1.45252 -0.43305,0.21652 -1.01945,-0.21653 -1.45251,0 -0.61243,0.30621 -0.84008,1.14629 -1.45251,1.45251 -0.43306,0.21653 -1.11016,-0.34236 -1.45252,0 -0.34236,0.34236 0.34236,1.11015 0,1.45251 -3.0053,3.00531 0.11748,-4.5925 -2.90503,1.45252 -0.43305,0.86611 0.68473,2.2203 0,2.90503 -0.34236,0.34236 -1.11015,-0.34236 -1.45251,0 -0.72626,0.72625 0.72626,3.63128 0,4.35754 -0.34236,0.34236 -1.23599,-0.43306 -1.45251,0 -0.17078,0.34156 0,4.85587 0,5.81005 0,0.53342 -0.0585,5.75161 0,5.81006 0.34236,0.34236 0.96834,0 1.45251,0 1.93668,0 3.87337,0 5.81006,0 0.96834,0 1.93668,0 2.90502,0 0.96835,0 1.98638,0.30622 2.90503,0 4.10833,-1.36944 7.45618,-4.62036 11.62011,-5.81006 1.39663,-0.39903 2.90503,0 4.35754,0 0.48418,0 1.01946,0.21653 1.45252,0 0.61243,-0.30621 0.84008,-1.14629 1.45251,-1.45251 0.57591,-0.28796 4.0606,0.29695 4.35754,0 0.34237,-0.34236 -0.34236,-1.11015 0,-1.45251 0.34237,-0.34237 0.96835,0 1.45252,0 0,-0.48418 -0.34236,-1.11016 0,-1.45252 0.68472,-0.68472 2.03891,0.43306 2.90503,0 0.61243,-0.30622 0.84008,-1.1463 1.45251,-1.45251 0.86611,-0.43306 2.22031,0.68472 2.90503,0 2.08566,-2.08566 -2.68157,-1.34078 -2.90503,-1.45252 -0.61243,-0.30621 -0.84008,-1.14629 -1.45251,-1.45251 -0.43306,-0.21653 -0.96835,0 -1.45252,0 -0.96834,0 -2.03891,0.43306 -2.90503,0 -0.43305,-0.21653 0.34237,-1.11015 0,-1.45251 -0.34236,-0.34236 -1.01945,0.21652 -1.45251,0 -6.04501,-3.02251 1.55279,0.10027 -1.45251,-2.90503 -0.34236,-0.34236 -1.11016,0.34236 -1.45252,0 -0.34236,-0.34236 0.34236,-1.11016 0,-1.45252 -0.34236,-0.34236 -1.01946,0.21653 -1.45251,0 -2.52513,-1.26256 -4.84171,-2.90502 -7.26257,-4.35754 z"
         style="fill:#fffdfc;fill-opacity:1;stroke:#000000;stroke-width:1px;stroke-linecap:butt;stroke-linejoin:miter;stroke-opacity:1" />
      <path
         transform="translate(0,12.362183)"
         inkscape:connector-curvature="0"
         id="path3803"
         d="m -222.23464,358.77095 c -5.32588,0 -10.65177,0 -15.97765,0 -0.61102,0 -8.283,-0.21604 -8.71508,0 -0.61244,0.30622 -0.84008,1.1463 -1.45252,1.45251 -0.43305,0.21653 -1.11015,-0.34236 -1.45251,0 -0.34236,0.34236 0.34236,1.11016 0,1.45252 -0.34236,0.34236 -1.01946,-0.21653 -1.45252,0 -0.38565,0.19283 -4.16471,3.97188 -4.35754,4.35754 -0.21653,0.43306 0.34236,1.11015 0,1.45251 -0.34236,0.34236 -1.11015,-0.34236 -1.45251,0 -0.48174,0.48174 0.48174,2.42329 0,2.90503 -0.34236,0.34236 -1.11016,-0.34236 -1.45252,0 -0.34236,0.34236 0.34236,1.11015 0,1.45252 -0.34236,0.34236 -1.11015,-0.34237 -1.45251,0 -0.0467,0.0467 0,4.00526 0,4.35754 0,0.53341 -0.0584,5.7516 0,5.81005 0.34236,0.34236 1.11015,-0.34236 1.45251,0 0.34236,0.34236 -0.34236,1.11016 0,1.45252 0.29695,0.29694 3.78164,-0.28796 4.35755,0 0.61243,0.30621 0.84008,1.14629 1.45251,1.45251 0.44205,0.22103 3.70339,0 4.35754,0 1.16933,0 4.89838,0.30389 5.81006,0 3.20589,-1.06863 2.60416,-1.8364 5.81005,-2.90503 0.45933,-0.15311 0.99319,0.15311 1.45252,0 2.72576,-0.90858 3.08429,-1.99644 5.81005,-2.90502 4.32389,-1.4413 -2.98027,3.43936 4.35755,-1.45252 0.56972,-0.37981 0.84008,-1.1463 1.45251,-1.45251 1.93668,-0.96835 1.45251,1.45251 1.45251,-1.45252 0,-1.50265 0.34236,-2.00759 -1.45251,-2.90502 -0.43306,-0.21653 -1.11015,0.34236 -1.45251,0 -0.34237,-0.34237 0.43305,-1.23599 0,-1.45252 -0.86612,-0.43305 -1.93669,0 -2.90503,0 -0.96835,-0.48417 -2.00422,-0.85197 -2.90503,-1.45251 -0.56972,-0.37982 -0.96834,-0.96835 -1.45251,-1.45252 -1.6619,-1.66189 -1.71945,-2.02566 -4.35755,-2.90502 -0.45932,-0.15311 -0.96834,0 -1.45251,0 -0.48417,-0.48418 -0.84008,-1.1463 -1.45251,-1.45252 -1.93669,-0.96834 -1.45252,1.45252 -1.45252,-1.45251"
         style="fill:#fffdfc;fill-opacity:1;stroke:#000000;stroke-width:1px;stroke-linecap:butt;stroke-linejoin:miter;stroke-opacity:1" />
    </g>
    <flowRoot
       xml:space="preserve"
       id="flowRoot3822"
       style="font-size:40px;font-style:normal;font-weight:normal;line-height:125%;letter-spacing:0px;word-spacing:0px;fill:#000000;fill-opacity:1;stroke:none;font-family:Sans"
       transform="translate(0,92.362183)"><flowRegion
         id="flowRegion3824"><rect
           id="rect3826"
           width="226.59218"
           height="139.44135"
           x="103.12849"
           y="617.31842" /></flowRegion><flowPara
         id="flowPara3828">feature 0</flowPara></flowRoot>    <flowRoot
       transform="translate(280,92.362183)"
       style="font-size:40px;font-style:normal;font-weight:normal;line-height:125%;letter-spacing:0px;word-spacing:0px;fill:#000000;fill-opacity:1;stroke:none;font-family:Sans"
       id="flowRoot3830"
       xml:space="preserve"><flowRegion
         id="flowRegion3832"><rect
           y="617.31842"
           x="103.12849"
           height="139.44135"
           width="226.59218"
           id="rect3834" /></flowRegion><flowPara
         id="flowPara3836">feature 1</flowPara></flowRoot>    <flowRoot
       xml:space="preserve"
       id="flowRoot3838"
       style="font-size:40px;font-style:normal;font-weight:normal;line-height:125%;letter-spacing:0px;word-spacing:0px;fill:#000000;fill-opacity:1;stroke:none;font-family:Sans"
       transform="translate(560,92.362183)"><flowRegion
         id="flowRegion3840"><rect
           id="rect3842"
           width="226.59218"
           height="139.44135"
           x="103.12849"
           y="617.31842" /></flowRegion><flowPara
         id="flowPara3844">feature 2</flowPara></flowRoot>    <rect
       y="529.45715"
       x="281.67596"
       height="90.39106"
       width="404.35754"
       id="rect3846"
       style="fill:#f9f9f9;fill-opacity:1;stroke:none"
       ry="23.240223" />
    <flowRoot
       xml:space="preserve"
       id="flowRoot3848"
       style="font-size:40px;font-style:normal;font-weight:normal;line-height:125%;letter-spacing:0px;word-spacing:0px;fill:#000000;fill-opacity:1;stroke:none;font-family:Sans"
       transform="translate(262.56983,-69.090331)"><flowRegion
         id="flowRegion3850"><rect
           id="rect3852"
           width="271.62012"
           height="85.698326"
           x="103.12849"
           y="617.31842" /></flowRegion><flowPara
         id="flowPara3854">Signup Now</flowPara></flowRoot>    <flowRoot
       transform="translate(559.02793,159.6471)"
       style="font-size:40px;font-style:normal;font-weight:normal;line-height:125%;letter-spacing:0px;word-spacing:0px;fill:#000000;fill-opacity:1;stroke:none;font-family:Sans"
       id="flowRoot3856"
       xml:space="preserve"><flowRegion
         id="flowRegion3858"><rect
           y="617.31842"
           x="103.12849"
           height="156.87151"
           width="220.78212"
           id="rect3860" /></flowRegion><flowPara
         id="flowPara3862">something</flowPara><flowPara
         id="flowPara3864">something</flowPara><flowPara
         id="flowPara3866">twitter</flowPara></flowRoot>    <flowRoot
       transform="translate(-425.34375,-54.211013)"
       style="font-size:40px;font-style:normal;font-weight:normal;line-height:125%;letter-spacing:0px;word-spacing:0px;fill:#000000;fill-opacity:1;stroke:none;font-family:Sans"
       id="flowRoot3868"
       xml:space="preserve"><flowRegion
         id="flowRegion3870"><rect
           y="82.793297"
           x="479.32962"
           height="75.530724"
           width="321.00558"
           id="rect3872" /></flowRegion><flowPara
         style="font-size:24px;fill:#f9f9f9"
         id="flowPara3874">login * blog * about</flowPara></flowRoot>    <flowRoot
       xml:space="preserve"
       id="flowRoot3876"
       style="font-size:40px;font-style:normal;font-weight:normal;line-height:125%;letter-spacing:0px;word-spacing:0px;fill:#00affc;fill-opacity:1;stroke:none;font-family:Sans"
       transform="translate(-99.34375,511.78899)"><flowRegion
         id="flowRegion3878"><rect
           id="rect3880"
           width="321.00558"
           height="75.530724"
           x="479.32962"
           y="82.793297"
           style="fill:#00affc;fill-opacity:1" /></flowRegion><flowPara
         id="flowPara3882"
         style="font-size:20px;fill:#00affc;fill-opacity:1"><flowSpan
   style="font-size:20px;fill:#000a0e;fill-opacity:1"
   id="flowSpan3886">already a user?</flowSpan> login</flowPara></flowRoot>  </g>
</svg>
